HIERARCHY
ROOT Pelvis
{
	OFFSET 0.000000 0.000000 0.000000
	CHANNELS 6 Xposition Yposition Zposition Xrotation Yrotation Zrotation
	JOINT LeftUpLeg_virtual
	{
		OFFSET 0.000000 0.000000 0.000000
		CHANNELS 3 Xrotation Yrotation Zrotation
		JOINT LeftUpLeg
		{
			OFFSET 18.735201 -5.666702 -4.541200
			CHANNELS 3 Xrotation Yrotation Zrotation
			JOINT LeftLeg
			{
				OFFSET -0.021200 -31.938179 0.493100
				CHANNELS 3 Xrotation Yrotation Zrotation
				JOINT LeftFoot
				{
					OFFSET 0.021200 -31.938179 -4.336299
					CHANNELS 3 Xrotation Yrotation Zrotation
					JOINT LeftToeBase
					{
						OFFSET 0.943001 -26.722000 15.023500
						CHANNELS 3 Xrotation Yrotation Zrotation
						End Site
						{
							OFFSET 0 0 0
						}
					}
				}
			}
		}
	}
	JOINT RightUpLeg_virtual
	{
		OFFSET 0.000000 0.000000 0.000000
		CHANNELS 3 Xrotation Yrotation Zrotation
		JOINT RightUpLeg
		{
			OFFSET -18.735201 -5.666702 -4.541200
			CHANNELS 3 Xrotation Yrotation Zrotation
			JOINT RightLeg
			{
				OFFSET 0.018946 -31.938133 0.493100
				CHANNELS 3 Xrotation Yrotation Zrotation
				JOINT RightFoot
				{
					OFFSET -0.018946 -31.938126 -4.336299
					CHANNELS 3 Xrotation Yrotation Zrotation
					JOINT RightToeBase
					{
						OFFSET -0.943001 -26.722004 15.023500
						CHANNELS 3 Xrotation Yrotation Zrotation
						End Site
						{
							OFFSET 0 0 0
						}
					}
				}
			}
		}
	}
	JOINT Hips_virtual
	{
		OFFSET 0.000000 0.000000 0.000000
		CHANNELS 3 Xrotation Yrotation Zrotation
		JOINT Hips
		{
			OFFSET -0.000000 -0.000000 -0.000000
			CHANNELS 3 Xrotation Yrotation Zrotation
			JOINT Spine
			{
				OFFSET 0.000000 10.199997 -0.299500
				CHANNELS 3 Xrotation Yrotation Zrotation
				JOINT Spine1
				{
					OFFSET 0.000000 11.900002 -1.516600
					CHANNELS 3 Xrotation Yrotation Zrotation
					JOINT Spine2
					{
						OFFSET 0.000000 13.600006 -2.842500
						CHANNELS 3 Xrotation Yrotation Zrotation
						JOINT Neck_virtual
						{
							OFFSET 0.000000 0.000000 0.000000
							CHANNELS 3 Xrotation Yrotation Zrotation
							JOINT Neck
							{
								OFFSET 0.000000 9.624100 -2.890100
								CHANNELS 3 Xrotation Yrotation Zrotation
								JOINT Head
								{
									OFFSET 0.000000 14.068802 -1.351900
									CHANNELS 3 Xrotation Yrotation Zrotation
									End Site
									{
										OFFSET 0 0 0
									}
								}
							}
						}
						JOINT LeftShoulder_virtual
						{
							OFFSET 0.000000 0.000000 0.000000
							CHANNELS 3 Xrotation Yrotation Zrotation
							JOINT LeftShoulder
							{
								OFFSET 15.263000 10.923401 -0.547700
								CHANNELS 3 Xrotation Yrotation Zrotation
								JOINT LeftArm
								{
									OFFSET 25.438599 -2.830597 -13.032500
									CHANNELS 3 Xrotation Yrotation Zrotation
									JOINT LeftForeArm
									{
										OFFSET 29.960503 0.000000 0.000000
										CHANNELS 3 Xrotation Yrotation Zrotation
										JOINT LeftHand
										{
											OFFSET 27.849251 0.000000 0.000000
											CHANNELS 3 Xrotation Yrotation Zrotation
											End Site
											{
												OFFSET 0 0 0
											}
										}
									}
								}
							}
						}
						JOINT RightShoulder_virtual
						{
							OFFSET 0.000000 0.000000 0.000000
							CHANNELS 3 Xrotation Yrotation Zrotation
							JOINT RightShoulder
							{
								OFFSET -15.263000 10.923401 -0.547700
								CHANNELS 3 Xrotation Yrotation Zrotation
								JOINT RightArm
								{
									OFFSET -25.438599 -2.830597 -13.032500
									CHANNELS 3 Xrotation Yrotation Zrotation
									JOINT RightForeArm
									{
										OFFSET -29.960503 0.000000 0.000000
										CHANNELS 3 Xrotation Yrotation Zrotation
										JOINT RightHand
										{
											OFFSET -27.849251 0.000000 0.000000
											CHANNELS 3 Xrotation Yrotation Zrotation
											End Site
											{
												OFFSET 0 0 0
											}
										}
									}
								}
							}
						}
					}
				}
			}
		}
	}
}
MOTION
Frames: 5
Frame Time: 0.03333333
-7.342927 88.508926 87.911545 0.000000 0.000000 0.000000 23.424202 13.128738 -8.518241 -36.912548 -1.928322 -7.346182 38.799627 -4.269199 -3.354280 -24.426392 1.684704 12.140934 0.000000 0.000000 0.000000 23.424202 13.128738 -8.518241 -58.127669 -4.524381 -15.795004 52.535950 -5.874829 0.829667 12.587409 -3.961626 18.509748 0.000000 0.000000 0.000000 23.424202 13.128738 -8.518241 0.000000 -0.000001 0.000000 9.548978 1.238264 -1.760935 -0.471731 1.782883 -0.358118 0.000000 0.000000 0.000000 -0.315420 2.367526 -0.492584 -4.382082 -0.032447 0.267593 0.000000 0.000000 0.000000 -0.315420 2.367526 -0.492584 0.804510 -1.055560 -19.731156 11.314146 -4.215711 -51.272581 0.000010 -61.671800 0.000042 0.000000 0.000000 0.000000 -0.315420 2.367526 -0.492584 0.318341 6.828686 17.985684 14.222239 -10.989037 46.953852 -0.000019 67.377822 0.000009 0.000000 0.000000 0.000000 
-7.161156 88.513351 90.450462 0.000000 0.000000 0.000000 23.683324 13.738110 -8.839125 -34.244642 -3.753701 -6.991932 37.310489 -3.220212 -3.667645 -25.856641 1.137154 11.485008 0.000000 0.000000 0.000000 23.683324 13.738110 -8.839125 -60.024563 -4.297971 -15.738532 50.001575 -5.947205 0.541618 12.493323 -5.165292 17.423961 0.000000 0.000000 0.000000 23.683324 13.738110 -8.839125 0.000001 0.000001 -0.000000 9.416333 0.952856 -1.588284 -0.422837 1.770881 -0.370543 0.000000 0.000000 0.000000 -0.273304 2.351422 -0.497371 -4.372793 -0.017021 0.243917 0.000000 0.000000 0.000000 -0.273304 2.351422 -0.497371 0.828882 -1.055388 -19.581365 11.301112 -4.179480 -51.475164 0.000014 -61.665509 0.000028 0.000000 0.000000 0.000000 -0.273304 2.351422 -0.497371 0.322452 6.792936 17.816154 14.532747 -11.075066 47.066034 0.000001 67.339600 -0.000004 0.000000 0.000000 0.000000 
-7.004602 88.363297 93.012062 0.000000 0.000000 0.000000 23.941847 14.218950 -9.060697 -31.542206 -5.226197 -6.565959 35.942614 -2.062654 -3.857148 -27.391634 0.400750 10.717106 0.000000 0.000000 0.000000 23.941847 14.218950 -9.060697 -62.446145 -3.663183 -15.640020 47.479148 -5.527796 0.445091 13.057472 -6.464121 16.770394 0.000000 0.000000 0.000000 23.941847 14.218950 -9.060697 0.000002 -0.000001 0.000000 9.242251 0.658333 -1.530127 -0.374516 1.775973 -0.381383 0.000000 0.000000 0.000000 -0.232037 2.353974 -0.505841 -4.374178 0.001110 0.227750 0.000000 0.000000 0.000000 -0.232037 2.353974 -0.505841 0.850981 -1.055164 -19.445719 11.378953 -4.063367 -51.572617 0.000007 -61.739617 0.000007 0.000000 0.000000 0.000000 -0.232037 2.353974 -0.505841 0.330578 6.717012 17.586537 14.906755 -11.096833 47.280728 -0.000004 67.421166 0.000009 0.000000 0.000000 0.000000 
-6.903852 87.950119 95.699585 0.000000 0.000000 0.000000 24.111659 14.623474 -9.079311 -28.764556 -6.496236 -6.216973 34.968909 -0.855533 -3.933177 -29.316401 -0.318607 9.838829 0.000000 0.000000 0.000000 24.111659 14.623474 -9.079311 -65.131475 -2.189243 -15.547414 45.055462 -7.207273 0.043881 14.684212 -5.229812 17.014898 0.000000 0.000000 0.000000 24.111659 14.623474 -9.079311 0.000000 -0.000001 0.000000 9.053498 0.350090 -1.716530 -0.327081 1.791591 -0.387872 0.000000 0.000000 0.000000 -0.191799 2.389390 -0.519251 -4.392989 0.019211 0.222884 0.000000 0.000000 0.000000 -0.191799 2.389390 -0.519251 0.870928 -1.054919 -19.323111 11.546882 -4.117306 -51.490911 0.000016 -61.781431 0.000026 0.000000 0.000000 0.000000 -0.191799 2.389390 -0.519251 0.359519 6.327632 17.328665 15.284196 -11.054892 47.591180 -0.000002 67.686977 -0.000007 0.000000 0.000000 0.000000 
-6.806876 87.493347 98.300697 0.000000 0.000000 0.000000 24.240550 15.015104 -9.002635 -25.804979 -7.764117 -5.759792 33.576957 0.351115 -4.276820 -30.990399 -1.070605 9.093376 0.000000 0.000000 0.000000 24.240550 15.015104 -9.002635 -67.363492 -0.156487 -15.438224 44.085408 -8.217632 0.280741 14.711363 -4.922814 18.068017 0.000000 0.000000 0.000000 24.240550 15.015104 -9.002635 0.000002 0.000000 0.000000 8.873262 0.043324 -2.015471 -0.280794 1.810338 -0.395190 0.000000 0.000000 0.000000 -0.152859 2.438997 -0.533948 -4.418732 0.037897 0.224856 0.000000 0.000000 0.000000 -0.152859 2.438997 -0.533948 0.890497 -1.054641 -19.202930 11.762136 -4.398515 -51.352975 0.000001 -61.704352 -0.000004 0.000000 0.000000 0.000000 -0.152859 2.438997 -0.533948 0.386615 5.917546 17.090624 15.677205 -11.013519 47.931758 -0.000015 67.967124 0.000018 0.000000 0.000000 0.000000 
